<svg id="Capa_1" data-name="Capa 1" xmlns="http://www.w3.org/2000/svg" viewBox="0 0 1080 1080"><defs><style>.cls-1{fill:#fff;}</style></defs><title>Logotipo_editable</title><path class="cls-1" d="M549.79,824.48h0a26.92,26.92,0,0,1-.5,38.22l-.17.16-.17-.17A27.15,27.15,0,0,1,549.79,824.48Z"/><path class="cls-1" d="M826,599.26h0A26.9,26.9,0,0,1,864.15,601l.16.18-.18.16A27.15,27.15,0,0,1,826,599.26Z"/><path class="cls-1" d="M694,287.46h0a26.91,26.91,0,0,1,19.81-32.69l.23-.05,0,.23A27.15,27.15,0,0,1,694,287.46Z"/><path class="cls-1" d="M570.66,145.05h0A26.9,26.9,0,0,1,599,119.39h.23v.24A27.14,27.14,0,0,1,570.66,145.05Z"/><path class="cls-1" d="M308.43,745.31c16.45-17.48,42-18,61.63.53a88.8,88.8,0,0,1,21.17,31.93l-19.94,22.91-.86-.81c10.94-23.22,8.7-41.68-4-53.65-11.7-11-30.16-13.41-43.22.46-12.64,13.44-7.55,28.85-1,46.77L326,803.87c5.5,14.71,9.21,30.74-5.34,46.2-15.5,16.47-39.2,17.32-56.39,1.14a85.43,85.43,0,0,1-19.71-30.3l16.18-17.19.87.82c-8.52,20.32-5.55,35.11,5.15,45.18,12.13,11.43,28,10.81,39.4-1.33,12-12.71,6.79-26.31,2.35-38.67l-3.82-10.41C298,781,292.11,762.63,308.43,745.31Z"/><path class="cls-1" d="M300.71,653.68l1.07-.53,20.8,41.05-1.06.54c-6.1-12-14.42-8.7-27.52-2.07-52.48,26.52-75.71-2.62-85,2.09a2.72,2.72,0,0,0-1.27,4c6,11.91,43,7.72,52.43,26.25a9,9,0,0,1-3.86,12.7c-13.92,7.06-25.1-13.18-46.88-2.15-13.09,6.65-20.7,11.39-14.6,23.42l-1.06.54-20.81-41.06,1.06-.54c6.11,12,14.43,8.71,27.53,2.08,25.75-13.06,40.12,5.87,45.63,3.08,1.35-.68,1.3-2,.73-3.16-4-8-38-8.9-43.47-19.67a6.32,6.32,0,0,1,2.65-9.27c13.12-6.65,23.35,14.35,79.15-13.92C299.25,670.42,306.8,665.67,300.71,653.68Z"/><path class="cls-1" d="M260.73,467.83l32.46,8.86-13,99.17-1.18-.15c1.75-13.38-7-15.33-21.57-17.24-55-7.26-43.79-65.69-55.6-67.24a2.73,2.73,0,0,0-3.29,2.56c-2.43,18.6,23.09,38.14,20.2,60.26a8.55,8.55,0,0,1-10.36,8.32c-11.52-1.51-21.32-13.09-45.06-16.19-14.53-1.9-23.47-2.26-25.21,11.11l-1.19-.16,12.59-96.23,29.85,1.31-.15,1.18c-23.75,7.1-28.53,13.08-31.34,34.53l-3.68,28.14,21.45,2.81C189.16,532,198,544.62,208.16,546a3.05,3.05,0,0,0,2.33-.77,3.12,3.12,0,0,0,1-2.24c1.67-12.83-18.94-31.15-16.5-49.77a6.31,6.31,0,0,1,7.4-6.15c15.24,2-3.2,46.23,57.42,54.16l12.1,1.58c5.9.77,9.48-.56,10.28-6.66l3-23.22c2.73-20.87.17-28.8-24.69-43.86Z"/><path class="cls-1" d="M327.56,354.22l26.26,23.86-51.47,75.64-1-.66c7.59-11.16.64-16.84-11.5-25.1-48.58-33.14-34.29-67.58-42.92-73.45a2.74,2.74,0,0,0-4.09.81c-7.51,11,14,41.43,2.35,58.6a9,9,0,0,1-13,2.77c-12.91-8.78-.6-28.36-20.79-42.09-12.14-8.26-20-12.63-27.56-1.48l-1-.66,25.9-38.07,1,.67c-7.59,11.15-.65,16.84,11.49,25.1,23.88,16.25,14.25,38,19.36,41.45,1.25.85,2.4.17,3.12-.9,5-7.39-10.58-37.58-3.79-47.57a6.33,6.33,0,0,1,9.39-2.15c12.17,8.28-1.28,27.38,50.48,62.6l10.05,6.83c5.09,3.46,8.72,3.78,12.07-1.15l7.81-11.48c12.06-17.73,12.7-27.13-2.86-52.6Z"/><path class="cls-1" d="M514,297.77l.35,1.14c-16.53,5.07-33.25,11-41.51-15.92-6.76-22,5.27-38.37,2.82-46.37A2.32,2.32,0,0,0,473,235c-5.13,1.58-22,26.74-33.16,30.16a3.85,3.85,0,0,1-3.1-.16,3.8,3.8,0,0,1-2-2.38c-4.38-14.28,32-35.7,25.48-57.09-6.11-19.92-20.07-31.63-41.32-25.12l-7.21,2.22a6.62,6.62,0,0,0-5.12,9l32.06,104.55c4.3,14,7.49,22.4,20.39,18.45l.35,1.13L415.59,329.2l-.35-1.14c12.9-3.95,11-12.73,6.74-26.76l-27.8-90.69c-4.31-14-7.68-22.35-20.58-18.39l-.36-1.14,47.06-14.43c29.22-9,50.53.3,57.28,22.3,8.08,26.39-41,53.33-38.26,62.26a1.58,1.58,0,0,0,1.78.92c8.83-2.71,25.62-29.49,33-31.75,3.55-1.09,8-.63,9.39,4,2.25,7.33,1.24,26.74,6.6,44.24C493.8,290.79,501.5,301.63,514,297.77Z"/><path class="cls-1" d="M585.16,304.3l-.1,1.19-45.88-3.79.1-1.19c13.44,1.12,15-7.72,16.18-22.35,4.91-58.61,41.91-63.14,42.77-73.54a2.71,2.71,0,0,0-.63-2.21,2.78,2.78,0,0,0-2.09-.95c-13.3-1.09-29.13,32.63-49.84,30.92a9.05,9.05,0,0,1-8.8-9.94c1.29-15.56,24.39-14.49,26.4-38.82,1.21-14.64,1.15-23.6-12.3-24.71l.1-1.19L597,161.5l-.09,1.2c-13.46-1.11-15,7.72-16.19,22.36-2.38,28.79-26,31.11-26.54,37.26-.13,1.51,1,2.17,2.31,2.28,8.93.73,27.5-27.73,39.54-26.73a6.34,6.34,0,0,1,6.5,7.11c-1.21,14.67-24.47,12.38-29.61,74.73C571.67,294.29,571.75,303.21,585.16,304.3Z"/><path class="cls-1" d="M760.42,306.54c-22.34,38.43-60.34,51.71-93.63,32.36-33.63-19.54-40.86-57.26-18.13-96.38,22.34-38.44,60.17-51.8,93.46-32.46C775.75,229.6,783.15,267.42,760.42,306.54ZM743.23,297c20.15-34.66,22.21-70.19-2.85-84.75s-54,4-74.71,39.68c-20.14,34.66-22,70.29,2.86,84.76C693.58,351.25,722.49,332.71,743.23,297Z"/><path class="cls-1" d="M829.5,486.34c-22.3,8.93-45.66-1.35-55.71-26.41A88.83,88.83,0,0,1,768,422.05l27.74-12.4.44,1.1c-19.7,16.46-25.43,34.16-18.93,50.36,6,14.92,21.72,24.85,39.41,17.76,17.13-6.87,19-23,20.56-42l.91-11.06c1.21-15.66,4.58-31.77,24.29-39.68,21-8.42,42.86.78,51.65,22.69a85.55,85.55,0,0,1,5.14,35.79l-21.92,8.79-.44-1.11c16.27-14.87,19.8-29.53,14.33-43.16-6.2-15.48-20.84-21.58-36.32-15.38-16.2,6.5-17.22,21-18.39,34.11l-.91,11.05C854,458.35,851.59,477.48,829.5,486.34Z"/><path class="cls-1" d="M934.86,656.48l-1.19-.07c.89-13.47-14.23-16.46-33.63-17.74l-60.78-4c-33.46-2.21-48.87-18.75-46.89-48.64,1.53-23.23,11-38,29.21-43.39,37.76-10.9,64.92,37.34,75.35,38a2.73,2.73,0,0,0,3.11-2.77c.88-13.32-33.1-28.59-31.73-49.32a9,9,0,0,1,9.8-9c15.58,1,14.88,24.14,39.24,25.74,14.65,1,23.62.77,24.51-12.7l1.18.09-3,46.12-1.19-.07c.9-13.46-8-14.84-22.61-15.82-28.82-1.9-31.53-25.7-37.68-26.11-1.51-.1-2.16,1.08-2.24,2.35-.59,8.94,28.17,27,27.37,39.09a6.32,6.32,0,0,1-7,6.61c-14.67-1-22.25-32.53-73.36-25.82-17,3.06-25.21,12.75-26.39,30.62-1.61,24.35,11.51,39.34,42.59,41.39l60.78,4c19.4,1.28,34.87-.88,35.75-14.34l1.19.08Z"/><path class="cls-1" d="M750.51,765l-25.44-22,54.57-83.81,1,.64c-7.36,11.31-.32,16.85,12,24.86C839,715,803.72,762.87,813.7,769.36a2.73,2.73,0,0,0,4.07-.89c10.23-15.71-4.33-44.36,7.84-63.05a8.54,8.54,0,0,1,12.93-3c9.74,6.34,13.57,21,33.62,34.07,12.29,8,20.2,12.18,27.55.89l1,.65-53,81.32-26.35-14.09.65-1c24.47,3.86,31.37.54,43.17-17.58l15.49-23.78L862.6,751.07c-19.83-12.94-22.3-28.15-30.92-33.77a3.06,3.06,0,0,0-4.32,1.27c-7.06,10.84,3.6,36.27-6.65,52a6.3,6.3,0,0,1-9.33,2.35c-12.88-8.38,22.87-40.29-28.37-73.66l-10.22-6.65c-5-3.25-8.79-3.59-12.14,1.57L747.87,713.8c-11.48,17.63-12.6,25.89,3.29,50.21Z"/><path class="cls-1" d="M666.76,904.73c-8.51-16.07,2.5-34.32.38-38.31a1.41,1.41,0,0,0-.9-.62,1.45,1.45,0,0,0-1.07.2c-5.3,2.81-3.63,29.62-10.41,33.21a6.8,6.8,0,0,1-9.64-2.47c-3.6-6.79,5-20.81-10-51.62l-20.67-39,1.06-.56,137.19,75.74-44.62-84.16c-8.93-16.84-18.14-27.45-31-20.66l-.55-1,34.19-18.13.55,1c-12.27,6.51-9,20.28-.08,37.11l41.28,77.85c6.41,12.1,14.1,14.76,25.36,10.59l.56,1.05-28,14.87L633.84,835l2.44,4.6c.65,1.16,1.33,2.42,2,3.86,13.24,26.47,8.2,35.31,10.9,40.4,1,1.89,2.42,3,4.22,2,3.58-1.91,7.22-20,11-22a3.13,3.13,0,0,1,2.56-.41,3.09,3.09,0,0,1,2,1.66c2.86,5.39-7.79,22.45.9,37.94,9.66,18,18.62,28.26,31.73,21.31l.56,1.06-32.79,17.38-.56-1C680.61,935.54,676.29,922.83,666.76,904.73Z"/><path class="cls-1" d="M481.89,813.12l.05-1.18,45.2,1.72,0,1.19c-11.14.37-15,6.77-11.25,19l4.35,14.23c6.52,15.81,18.15,23.57,29.19,24.35s19.17-2.33,26.06-13.54c.31-.79.64-1.58.9-2.39l1.27-3.8.25-.69c0-.13.08-.23.12-.35,8.21-22.48,8.73-33.41-5.28-35.11l0-1.19,32.72,1.25-.05,1.18c-9.56.64-15.17,12.53-24.42,36.21l-1,2.62c-10.67,26.34-31.46,38.71-31.6,42.44,0,1.27.49,1.92,1.79,2,4,.15,20.12-26.85,30.64-26.45a6.41,6.41,0,0,1,6.1,7.36c-.59,15.65-47,44.72-48.28,78.68l-1.58-.06L499,838C493.7,821.11,490.19,814.22,481.89,813.12ZM526,866.94l19.76,64.41c11.23-18.66,28.79-35.26,29.1-43.34a2.27,2.27,0,0,0-.59-1.94,2.3,2.3,0,0,0-1.91-.71c-4.28-.16-15.72,18.68-22.69,18.41a3.87,3.87,0,0,1-3.89-4.19c.15-4.09,15.52-15.43,25.11-31.34a29.06,29.06,0,0,1-21.83,8.92A35.06,35.06,0,0,1,526,866.94Z"/><path class="cls-1" d="M580.62,579.65a44,44,0,0,0-18.36-12.93c-6.42-2.44-13.78-4.59-20.73-2.79a4.64,4.64,0,0,0-2.13,1.24h0a36.45,36.45,0,0,0-.62,49.27c0,11.64,0,25.3,0,36.2l-.77-.08c-6.61-.8-12.48-3.3-16.56-7.08-4.75-4.17-7.07-9.57-8.56-13.79a90,90,0,0,1-3.71-16.54,150.44,150.44,0,0,1-.07-37.47c1.13-7.45,2.8-13.19,5.28-18.12a74.41,74.41,0,0,1,10.38-16.48,119,119,0,0,1,8.46-9.43c1.71-1.78,3.44-3.57,5.14-5.46a33.62,33.62,0,0,0,6-9.15,19.1,19.1,0,0,0,1.61-5.66,8.3,8.3,0,0,0-2.06-7c-2.53-2.5-5.93-2-7.27-1.66a15.24,15.24,0,0,0-5.47,2.65,27.22,27.22,0,0,0-4.13,3.77c-1.17,1.3-2.28,2.58-3.39,3.89l-1,1.23c-1.78,2.12-7.41,8-7.41,8-2.21,2.19-8.76,8.17-11.74,6.07s-1.24-5.81.1-8.28a87.79,87.79,0,0,1,5.05-7.71c4.07-5.22,8.3-10.46,12.4-15.52,4.29-5.28,8.71-10.75,13-16.23,3.88-5,7.72-10.18,11.43-15.18l.83-1.12c3.93-5.22,8.1-10.87,12-16.78l.86-1.35a187.47,187.47,0,0,0,10-16.72c2.72-5.5,5.87-13,6-22a33.49,33.49,0,0,0-7.91-22.63,20.36,20.36,0,0,0-11-6.85,13.05,13.05,0,0,0-7,.47,12.55,12.55,0,0,0-5.41,3.93,24.09,24.09,0,0,0-4.55,10.48,56.8,56.8,0,0,0-1,10.62c0,5.29.16,10.49.29,15.71l.1,4.57c.3,14.31.28,26.14-.07,37.2-2.84,4.55-6,9.32-10.35,15.41A347.87,347.87,0,0,1,503.36,508L500,511.78c-1.11,1.22-2.25,2.58-3.62,4.3-2.39,3.09-5,6.82-5.28,12a12.31,12.31,0,0,0,2.95,8.72,10.91,10.91,0,0,0,4.72,3.14,11.32,11.32,0,0,0,5.1.43,14.35,14.35,0,0,0,7-3.24,29.25,29.25,0,0,0,3.69-3.7l.58-.65c2.43-2.88,4.52-5.54,6.55-8.36s4.07-5.45,6.11-8.1l.71-.92c1.79-2.32,3.47-4.51,5.65-5.92a9.15,9.15,0,0,1,3.43-1.63,2.87,2.87,0,0,1,2.47.41c.55.47.58,1.22.4,2.47a13.84,13.84,0,0,1-1.23,4,30.23,30.23,0,0,1-5.12,7.67c-2.44,2.78-5.11,5.37-7.93,8.11-2.08,2-4.23,4.12-6.28,6.28a129.13,129.13,0,0,0-13.2,16.23c-3.14,4.68-8.61,16.31-9.76,19.33-4.05,10.36-9.24,26.09-7.56,43,.86,8.74,3.36,16.33,7.42,22.54a38.93,38.93,0,0,0,19,15.31c7.79,3,15.42,3.44,21.84,3.53l1.15,0,0,2.69c-.14,16-2.15,28.63-5.31,34.4a37.94,37.94,0,0,0-2-7.28c-1.06-2.71-6.71-16.37-13.81-18.52A6.18,6.18,0,0,0,512,669c-2.37,1.66-3.58,5.17-3.34,9.62a27.22,27.22,0,0,0,13.77,21.55,14.4,14.4,0,0,0,6.56,2.16l.4,0a8,8,0,0,0,5.57-2.29c7-6.47,8.65-25.6,8.78-40.51l0-2.85A58.22,58.22,0,0,0,558.65,654a45.81,45.81,0,0,0,18.81-11.37A46.35,46.35,0,0,0,589,623.21C593.53,608.18,590.24,591.08,580.62,579.65Zm-36.41-156c0-7.18-.33-14.29-.62-20.27a37.67,37.67,0,0,1,.76-9.45h0c.53-2.31,1.61-5.51,3.8-7.61a5.33,5.33,0,0,1,3.69-1.59,4.61,4.61,0,0,1,2.1.51c2.24,1.09,3.72,3.55,4.55,5.39,2.27,5.42,2.24,11.57,2,16.31-.38,5-1.9,10.55-4.05,17.25a126.55,126.55,0,0,1-7.43,18c-1.53,3.07-3.19,6.18-5,9.44C544.21,443.14,544.28,434.11,544.21,423.64Zm27.28,162.42a53,53,0,0,1,5.43,34.26,41.69,41.69,0,0,1-6.39,16.56,31.36,31.36,0,0,1-14,11.42,35.14,35.14,0,0,1-12.81,2.54c0-11.06,0-25,0-36.78a36.09,36.09,0,0,0,1.82-45.51,40.51,40.51,0,0,1,13.54,4.79A33.42,33.42,0,0,1,571.49,586.06Z"/></svg>