<svg id="Capa_1" data-name="Capa 1" xmlns="http://www.w3.org/2000/svg" viewBox="122.18 120.02 835.67 839.98"><defs><style>.cls-1{fill:#fff;}</style></defs><title>Logotipo_editable</title><path class="cls-1" d="M244.83,273.74c0,34.39-26.13,60-64.78,60a127.43,127.43,0,0,1-53.43-12.51l-1.7-43.48h1.7c11.37,35,31.85,52,56.84,52,23,0,44.62-15.63,44.62-42.91,0-26.43-20.46-37.49-44.89-49.74L169,230c-20.17-9.95-39.78-23-39.78-53.43,0-32.39,23.87-56.55,57.69-56.55a122.57,122.57,0,0,1,50.29,12.24v33.82h-1.7C224.39,136.5,206.77,124,185.74,124,161.86,124,146,140.2,146,164.07c0,25,18.76,34.1,35.52,42.63l14.21,7.1C220.68,226.3,244.84,239.66,244.83,273.74Z"/><path class="cls-1" d="M334.5,328.6v1.7H268.57v-1.7c19.32,0,20.46-12.79,20.46-33.81.1-84.22,52.37-95,52.37-110a3.92,3.92,0,0,0-1.16-3.08,3.88,3.88,0,0,0-3.1-1.11c-19.11,0-37.72,50-67.47,50a12.94,12.94,0,0,1-13.73-13.15C255.94,195.1,289,193.92,289,159c0-21-1.14-33.81-20.46-33.81v-1.71h65.92v1.71C315.17,125.14,314,137.92,314,159c0,41.37-33.48,47.47-33.48,56.31,0,2.17,1.75,3,3.57,3,12.83,0,36-42.81,53.27-42.81a9.05,9.05,0,0,1,10.11,9.39c0,21.07-33.45,20.55-33.45,110.13C314.06,315.89,315.24,328.61,334.5,328.6Z"/><path class="cls-1" d="M567.59,282.57l-6.54,47.74H417.82v-1.7c19.33,0,20.46-12.79,20.46-33.81.11-79.38,85.15-74.41,85.15-91.45a3.91,3.91,0,0,0-4.25-4.19c-26.85,0-49.85,39.86-81.8,39.86a12.23,12.23,0,0,1-13.73-13.16c0-16.64,14.62-32.7,14.62-67,0-21-1.16-33.74-20.46-33.74v-1.71h139l3.69,42.63h-1.7C544.27,133.66,534.89,128,503.91,128H463.28v31c0,33.91-16.37,48.76-16.37,63.5a4.38,4.38,0,0,0,4.9,4.19c18.52,0,40.7-32.67,67.59-32.67a9.07,9.07,0,0,1,10.12,9.38c0,22-66.24,4-66.24,91.59v17.47c0,8.53,2.57,13.36,11.37,13.36h33.54c30.14,0,40.92-5.12,57.69-43.2Z"/><path class="cls-1" d="M726.13,280,719,330.32H588v-1.7c19.32,0,20.46-12.79,20.46-33.82.1-84.21,52.37-95,52.37-110a3.9,3.9,0,0,0-4.24-4.19c-19.13,0-37.74,50-67.48,50a12.94,12.94,0,0,1-13.74-13.15c0-22.35,33.09-23.54,33.09-58.5,0-21-1.14-33.82-20.46-33.82v-1.71H654v1.71c-19.33,0-20.46,12.79-20.46,33.82,0,41.36-33.49,47.47-33.49,56.3,0,2.17,1.74,3,3.57,3,12.83,0,36-42.8,53.27-42.8A9.05,9.05,0,0,1,667,184.83C667,205.9,633.5,205.37,633.5,295v17.4c0,8.81,2.56,13.36,11.09,13.36h19.89c30.7,0,42.35-6.82,60-45.75Z"/><path class="cls-1" d="M774.54,801.25c0,25.86-26,41.46-26,47.9a2,2,0,0,0,2.2,1.84c8.54,0,24.31-34.81,35.23-34.81a9.66,9.66,0,0,1,10.47,9.53c0,10.94-20.09,22.87-21.89,71.53V960h-1.7l-122-186.66V908.89c0,27.11,4.52,46.6,25.13,46.6v1.69H620.92v-1.69c19.76,0,24.83-19.49,24.83-46.6V783.51c0-19.49-7.89-28-24.83-30.22v-1.7H666.1L769.45,910.87v-7.41c0-1.9-.05-3.94,0-6.22,1-42.11,13.23-49.86,13.23-58.06,0-3-1.06-5.34-4-5.34-5.78,0-22.38,20.27-28.56,20.27a4.37,4.37,0,0,1-3.49-1.18,4.43,4.43,0,0,1-1.39-3.41c0-8.69,24.76-23,24.16-48.29-.15-29.09-4.58-48-25.68-48v-1.7h52.8v1.7C777.68,753.27,774.64,772.12,774.54,801.25Z"/><path class="cls-1" d="M241.47,899.58c0,34.17-26,59.59-64.38,59.59A126.35,126.35,0,0,1,124,946.74l-1.69-43.2H124c11.3,34.73,31.65,51.68,56.48,51.68,22.87,0,44.34-15.53,44.34-42.64,0-26.27-20.33-37.26-44.61-49.42l-14.12-7.06c-20.05-9.89-39.54-22.88-39.54-53.1,0-32.19,23.72-56.19,57.33-56.19a121.74,121.74,0,0,1,50,12.16v33.61h-1.7c-11-29.37-28.52-41.8-49.42-41.8-23.72,0-39.53,16.1-39.53,39.82,0,24.85,18.64,33.89,35.29,42.36L192.62,840C217.47,852.44,241.48,865.72,241.47,899.58Z"/><path class="cls-1" d="M441.25,750.19v1.7c-19.21,0-22,21.75-22,49.42V888c0,47.72-22,71.17-64.67,71.17-33.12,0-55-12-64.34-37.43-19-52.59,46.92-95.68,46.92-110.55a3.87,3.87,0,0,0-4.22-4.16c-19,0-37.49,49.68-67.05,49.68a12.89,12.89,0,0,1-13.65-13.07c0-22.22,32.87-23.4,32.87-58.14,0-20.89-1.13-33.6-20.33-33.6v-1.7h65.8v1.7c-19.2,0-20.33,12.71-20.33,33.6,0,41.11-33.55,47.18-33.55,56,0,2.16,1.73,3,3.55,3,12.74,0,35.75-42.53,52.93-42.53a9,9,0,0,1,10.05,9.32c0,20.92-44.11,34.64-29.78,106.59,5.93,23.82,20.47,34.61,45.95,34.61,34.74,0,54.79-20,54.79-64.38V801.33c0-27.67-4.52-49.42-23.72-49.42v-1.69Z"/><path class="cls-1" d="M605.4,908.36l-6.5,47.44H456.58v-1.69c19.2,0,20.33-12.71,20.33-33.61.1-78.87,84.61-73.93,84.61-90.87a3.93,3.93,0,0,0-1.15-3.06,3.89,3.89,0,0,0-3.07-1.1c-26.69,0-49.54,39.61-81.28,39.61A12.16,12.16,0,0,1,462.37,852c0-16.54,14.52-32.51,14.52-66.56,0-20.87-1.15-33.54-20.33-33.54v-1.69H594.65l3.67,42.36h-1.69c-14.4-32.2-23.73-37.84-54.5-37.84H501.74v30.78c0,33.69-16.26,48.45-16.26,63.09a4.31,4.31,0,0,0,1.52,3.15,4.39,4.39,0,0,0,3.35,1c18.41,0,40.45-32.46,67.17-32.46a9,9,0,0,1,10.05,9.31c0,21.87-65.82,4-65.82,91V938c0,8.47,2.55,13.27,11.3,13.27h33.32c30,0,40.67-5.08,57.33-42.92Z"/><path class="cls-1" d="M957.82,954.08v1.69H893.44v-1.69c15.82-1.13,20.9-10.44,15-27.68l-7-20c-10.12-22.13-27.08-32.54-42.83-33S831.49,877.72,822.3,894c-.4,1.15-.82,2.29-1.15,3.46l-1.6,5.47c-.11.35-.2.65-.31,1,0,.18-.11.34-.16.5-10.45,32.41-10.6,48,9.42,49.64v1.7H781.9v-1.7c13.56-1.41,20.9-18.63,32.76-52.8l1.34-3.78c13.73-38,42.63-56.75,42.63-62,0-1.81-.8-2.71-2.66-2.71-5.63,0-27.15,39.28-42.13,39.28a9.13,9.13,0,0,1-9.07-10.14c0-22.29,64.38-66.13,64.38-114.5h2.25l60.72,172.26C940.59,943.37,946,953,957.82,954.08ZM892.16,880l-31.59-90.51c-15,27.15-39,51.71-39,63.19a3.29,3.29,0,0,0,1,2.74,3.26,3.26,0,0,0,2.75.9c6.1,0,21.35-27.4,31.27-27.4a5.53,5.53,0,0,1,5.76,5.76c0,5.82-21.23,22.77-34,45.91a41.35,41.35,0,0,1,30.56-13.87A49.88,49.88,0,0,1,892.16,880Z"/><path class="cls-1" d="M362.21,851.25h0a38.36,38.36,0,0,1,.24,54.48l-.24.24-.24-.24A38.7,38.7,0,0,1,362.21,851.25Z"/><path class="cls-1" d="M858.77,892.94h0a38.34,38.34,0,0,1,.24,54.47l-.24.24-.24-.24A38.69,38.69,0,0,1,858.77,892.94Z"/><path class="cls-1" d="M311.58,697.24v2.18c-31.68,0-64.19,1.47-64.19-50.19,0-42.21,29.86-64.41,29.86-79.74a4.25,4.25,0,0,0-3.81-4.35c-9.83,0-52.91,35-74.3,35a7,7,0,0,1-7.52-7.18c0-27.37,75.32-45.33,75.32-86.36,0-38.18-18.19-66.19-58.92-66.19H194.2a12.11,12.11,0,0,0-13.82,13.09V654c0,26.91,1.09,43.28,25.82,43.28v2.18h-84v-2.18c24.74,0,26.19-16.37,26.19-43.28V480.1c0-26.91-1.45-43.28-26.19-43.28v-2.19h90.2c56,0,88.39,27.67,88.39,69.86,0,50.58-100.47,71.43-100.47,88.53a2.86,2.86,0,0,0,2.61,2.57c16.93,0,60.75-37.91,74.88-37.91,6.8,0,14.28,3.18,14.28,12.11,0,14-12.2,47.52-12.2,81.08C279.87,674.14,287.52,697.26,311.58,697.24Z"/><path class="cls-1" d="M425.59,697.25v2.18H341.21v-2.18c24.73,0,26.19-16.37,26.19-43.28.12-107.79,67-121.63,67-140.76a5,5,0,0,0-5.44-5.36c-24.46,0-48.29,64-86.36,64A16.56,16.56,0,0,1,325.05,555c0-28.61,42.34-30.13,42.34-74.88,0-26.91-1.46-43.28-26.18-43.28v-2.19h84.37v2.19c-24.73,0-26.18,16.37-26.18,43.28,0,52.94-42.86,60.76-42.86,72.07,0,2.77,2.24,3.81,4.57,3.81,16.42,0,46.05-54.79,68.18-54.79a11.61,11.61,0,0,1,12.95,12c0,27-42.82,26.31-42.82,141C399.43,681,400.94,697.26,425.59,697.25Z"/><path class="cls-1" d="M697.79,566.32c0,81.47-48,137.49-118.57,137.49-71.28,0-117.48-53.11-117.48-136,0-81.48,47.66-137.49,118.21-137.49C651.24,430.29,697.79,483.4,697.79,566.32Zm-36,.73c0-73.47-29.46-131.67-82.57-131.67s-81.83,56-81.83,131.67c0,73.47,29.82,131.67,82.56,131.67C633.06,698.72,661.79,642.71,661.79,567.05Z"/><path class="cls-1" d="M577.15,540.28h0a49.41,49.41,0,0,1,.31,70.17l-.31.31-.31-.32A49.83,49.83,0,0,1,577.15,540.28Z"/><path class="cls-1" d="M407.13,349.08h0a49.41,49.41,0,0,1-26,65.17l-.4.17-.17-.41A49.83,49.83,0,0,1,407.13,349.08Z"/><path class="cls-1" d="M916.05,483.9a79.07,79.07,0,0,0-32.95-23.2c-11.52-4.38-24.72-8.24-37.2-5a8.19,8.19,0,0,0-3.82,2.23h0A65.42,65.42,0,0,0,841,546.36c0,20.89,0,45.39,0,64.95l-1.38-.14c-11.86-1.43-22.4-5.92-29.71-12.7-8.53-7.49-12.7-17.18-15.38-24.75a161.64,161.64,0,0,1-6.64-29.67c-2.85-24.52-2.9-47.15-.14-67.26,2-13.35,5-23.66,9.48-32.51a133.58,133.58,0,0,1,18.63-29.57A210.26,210.26,0,0,1,831,397.79c3.07-3.19,6.17-6.41,9.23-9.8A60.8,60.8,0,0,0,851,371.57a34.59,34.59,0,0,0,2.89-10.16c.58-5.15-.68-9.49-3.7-12.57-4.54-4.49-10.64-3.58-13-3a27.25,27.25,0,0,0-9.82,4.75,48,48,0,0,0-7.4,6.77c-2.1,2.32-4.1,4.63-6.09,7L812,366.57c-3.21,3.8-13.3,14.36-13.3,14.36-4,3.94-15.73,14.67-21.07,10.91s-2.23-10.43.17-14.86c2.56-4.72,8.38-13,9.06-13.85,7.31-9.36,14.91-18.75,22.27-27.84,7.68-9.49,15.63-19.3,23.27-29.13,7-9,13.86-18.26,20.52-27.24l1.49-2c7-9.37,14.52-19.5,21.5-30.12l1.55-2.41c6.16-9.52,12.52-19.37,17.94-30,4.88-9.86,10.54-23.26,10.86-39.53.17-15.62-4.87-30-14.19-40.61-5.71-6.53-12.53-10.78-19.71-12.29a23.33,23.33,0,0,0-12.57.84,22.63,22.63,0,0,0-9.7,7.05c-4.87,5.94-6.85,12.82-8.16,18.8A102.57,102.57,0,0,0,840,167.7c.08,9.49.3,18.82.53,28.19l.19,8.19c.53,25.69.49,46.92-.14,66.76C835.5,279,829.76,287.57,822,298.49c-16.13,22.79-30.3,40.83-44.61,56.79l-6.06,6.83c-2,2.2-4,4.64-6.5,7.72-4.29,5.55-8.93,12.24-9.48,21.59a22.1,22.1,0,0,0,5.3,15.64,19.65,19.65,0,0,0,8.47,5.64,20.07,20.07,0,0,0,9.14.77,25.72,25.72,0,0,0,12.5-5.82A52.4,52.4,0,0,0,797.4,401l1-1.17c4.37-5.17,8.11-9.94,11.76-15,3.66-4.92,7.29-9.77,11-14.53l1.27-1.64c3.2-4.17,6.23-8.1,10.13-10.63a16.3,16.3,0,0,1,6.15-2.92,5.11,5.11,0,0,1,4.44.74c1,.84,1,2.18.72,4.43a24.52,24.52,0,0,1-2.21,7.18,54.13,54.13,0,0,1-9.18,13.78c-4.39,5-9.17,9.62-14.23,14.54-3.74,3.64-7.6,7.39-11.28,11.28a234.21,234.21,0,0,0-23.69,29.11c-5.63,8.42-15.45,29.28-17.51,34.7-7.27,18.59-16.58,46.82-13.56,77.16,1.54,15.69,6,29.31,13.3,40.44A69.8,69.8,0,0,0,799.61,616c14,5.3,27.67,6.18,39.18,6.34q1,0,2.07,0l0,4.83c-.26,28.74-3.87,51.37-9.53,61.73a67.77,67.77,0,0,0-3.66-13c-1.91-4.88-12-29.4-24.78-33.25a11.06,11.06,0,0,0-10,1.68c-4.25,3-6.44,9.27-6,17.26.72,12.92,8.64,29.89,24.7,38.67,4.76,2.6,8.62,3.87,11.78,3.87.24,0,.49,0,.72,0a14.43,14.43,0,0,0,10-4.11c12.59-11.61,15.52-45.94,15.76-72.69l0-5.11a104.8,104.8,0,0,0,26.77-4.73A82.14,82.14,0,0,0,910.38,597a83.06,83.06,0,0,0,20.69-34.91C939.22,535.09,933.32,504.41,916.05,483.9Zm-65.34-280c-.06-12.88-.6-25.64-1.11-36.36a67.47,67.47,0,0,1,1.37-17h0c.94-4.15,2.89-9.88,6.81-13.65a9.55,9.55,0,0,1,6.62-2.87,8.19,8.19,0,0,1,3.78.93c4,2,6.67,6.36,8.17,9.67,4.07,9.72,4,20.76,3.51,29.27-.68,9-3.4,18.92-7.28,31a228,228,0,0,1-13.31,32.31c-2.77,5.51-5.73,11.1-9,16.95C850.71,238.94,850.84,222.73,850.71,203.94Zm48.95,291.47c9.92,17.94,13.38,39.78,9.76,61.48A74.72,74.72,0,0,1,898,586.6a56.27,56.27,0,0,1-25.06,20.5,62.93,62.93,0,0,1-23,4.56c.09-19.85.07-44.84,0-66A64.74,64.74,0,0,0,853.2,464a73,73,0,0,1,24.3,8.6A59.85,59.85,0,0,1,899.66,495.41Z"/></svg>