<svg id="Capa_1" data-name="Capa 1" xmlns="http://www.w3.org/2000/svg" viewBox="0 0 1080 1080"><defs><style>.cls-1{fill:#b9dbe5;}</style></defs><title>Logotipo_editable</title><path class="cls-1" d="M623.4,621.41a90.36,90.36,0,0,0-37.7-26.55c-13.18-5-28.29-9.43-42.57-5.72a9.3,9.3,0,0,0-4.37,2.55h0a74.85,74.85,0,0,0-1.28,101.17c0,23.9.06,51.93,0,74.31l-1.58-.16c-13.57-1.63-25.63-6.77-34-14.52-9.75-8.57-14.53-19.67-17.59-28.33a184.49,184.49,0,0,1-7.6-33.95c-3.26-28-3.31-54-.16-77,2.33-15.28,5.76-27.07,10.85-37.2a152.63,152.63,0,0,1,21.31-33.83A241.15,241.15,0,0,1,526,522.88c3.52-3.65,7.06-7.34,10.56-11.21,5.78-6.58,9.83-12.74,12.36-18.79a39.66,39.66,0,0,0,3.3-11.63c.67-5.89-.78-10.85-4.22-14.38-5.2-5.14-12.18-4.09-14.94-3.42a31.59,31.59,0,0,0-11.23,5.44,53.92,53.92,0,0,0-8.47,7.75c-2.41,2.66-4.7,5.3-7,8l-2.13,2.52c-3.67,4.36-15.21,16.44-15.21,16.44-4.54,4.51-18,16.78-24.11,12.48s-2.56-11.93.19-17c2.93-5.4,9.59-14.82,10.37-15.84,8.36-10.71,17.06-21.46,25.47-31.85,8.8-10.86,17.89-22.08,26.63-33.33,8-10.27,15.86-20.89,23.48-31.17l1.7-2.3c8.06-10.73,16.62-22.32,24.6-34.46l1.78-2.76c7-10.89,14.33-22.16,20.52-34.34,5.59-11.28,12.07-26.62,12.43-45.23.19-17.87-5.57-34.37-16.23-46.47-6.54-7.47-14.35-12.33-22.56-14.06a26.59,26.59,0,0,0-14.37,1,25.63,25.63,0,0,0-11.1,8.06c-5.58,6.79-7.85,14.67-9.34,21.52a116.76,116.76,0,0,0-2.15,21.81c.09,10.85.34,21.54.6,32.26l.21,9.37c.62,29.39.57,53.68-.15,76.38-5.82,9.36-12.4,19.15-21.25,31.64-18.46,26.08-34.67,46.72-51,65l-6.94,7.81c-2.27,2.52-4.62,5.31-7.43,8.84-4.91,6.34-10.22,14-10.84,24.7a25.26,25.26,0,0,0,6.05,17.89,22.38,22.38,0,0,0,9.69,6.46,23.14,23.14,0,0,0,10.47.88,29.49,29.49,0,0,0,14.3-6.66,60.19,60.19,0,0,0,7.57-7.59l1.2-1.34c5-5.91,9.27-11.37,13.45-17.17,4.18-5.62,8.34-11.18,12.55-16.62l1.45-1.88c3.67-4.77,7.13-9.27,11.59-12.16a18.53,18.53,0,0,1,7-3.34c2.17-.44,3.91-.15,5.08.84s1.19,2.5.83,5.07a28.37,28.37,0,0,1-2.53,8.22A61.68,61.68,0,0,1,527.79,504c-5,5.7-10.49,11-16.28,16.64-4.28,4.16-8.7,8.46-12.9,12.91a265.91,265.91,0,0,0-27.11,33.31c-6.44,9.62-17.68,33.5-20,39.69-8.31,21.28-19,53.58-15.52,88.29,1.77,18,6.9,33.53,15.23,46.28a79.91,79.91,0,0,0,39,31.44c16,6.06,31.66,7.07,44.83,7.25l2.37,0,0,5.53c-.29,32.88-4.42,58.78-10.9,70.63A77.09,77.09,0,0,0,522.24,841c-2.18-5.58-13.78-33.63-28.36-38a12.72,12.72,0,0,0-11.43,1.93c-4.86,3.4-7.36,10.6-6.85,19.74.82,14.79,9.87,34.21,28.26,44.26,5.44,3,9.86,4.42,13.47,4.42.28,0,.56,0,.83,0a16.51,16.51,0,0,0,11.43-4.71c14.4-13.28,17.75-52.56,18-83.17l0-5.85a119.32,119.32,0,0,0,30.64-5.41,94,94,0,0,0,38.61-23.35,95.23,95.23,0,0,0,23.68-39.94C649.91,680,643.16,644.87,623.4,621.41ZM548.64,301.08c-.07-14.74-.68-29.34-1.28-41.61a77.31,77.31,0,0,1,1.58-19.42h0c1.07-4.74,3.3-11.3,7.79-15.62a11,11,0,0,1,7.58-3.28,9.17,9.17,0,0,1,4.31,1.07c4.59,2.23,7.64,7.28,9.35,11.06,4.66,11.12,4.59,23.76,4,33.49-.78,10.35-3.89,21.65-8.32,35.42a262,262,0,0,1-15.24,37c-3.16,6.29-6.56,12.7-10.28,19.39C548.64,341.12,548.79,322.58,548.64,301.08Zm56,333.49C616,655.11,620,680.09,615.82,704.92c-2.2,13-6.62,24.39-13.13,34A64.48,64.48,0,0,1,574,762.37a72.09,72.09,0,0,1-26.29,5.21c.09-22.7.08-51.3,0-75.52a74.1,74.1,0,0,0,3.73-93.45,83.5,83.5,0,0,1,27.8,9.84A68.57,68.57,0,0,1,604.65,634.57Z"/></svg>