<svg xmlns="http://www.w3.org/2000/svg" viewBox="326.3 5.3 203.1 492.5"><defs><clipPath id="a" transform="translate(326.06 -3.27)"><path style="fill:none" d="M.2-55.8h222.75v556.87H.2z"/></clipPath></defs><g style="clip-path:url(#a)"><path d="M-325.94 232.13c-1.35-32.89 8.07-80 45.64-102 41.77-24.52 75 11.1 94.27 40.1 9.22-62.67 42.66-120.48 90.24-148.41C-39-11.52 22.14.86 52.53 52.63 137.88 198-30.14 322.86 10.33 391.81A14.31 14.31 0 0 0 31 396.32C70.73 373 83.29 290.8 127 265.12c21.84-12.83 46.21-5.16 62 21.82 31 52.84 16.73 173.17-92.23 237.13-81 47.54-153.08 14.63-199.16-63.88l-129.4-220.43c-20.09-34.24-38.42-61.65-64.31-46.45a51.38 51.38 0 0 0-23 39.29Zm279.66 170.49c14.21 24.21 67.64 115.24 152 65.73a90.17 90.17 0 0 0 33.36-123.56 23 23 0 0 0-34.18-10.49c-15.13 8.88-25.63 48.6-62.48 70.23A34 34 0 0 1-8.3 391c-35.52-60.51 50-201.93 6-276.88C-28.3 69.83-72.85 59-112.12 82c-33.39 19.61-55.78 61.93-66.51 95.17Z" transform="translate(326.06 -3.27)" style="fill:#b0bcaf"/></g></svg>
