<svg id="Capa_1" data-name="Capa 1" xmlns="http://www.w3.org/2000/svg" viewBox="0 0 57.36 57.36"><defs><style>.cls-1{fill:#fff;}</style></defs><title>04</title><path class="cls-1" d="M22.36,56.62A29,29,0,0,1,7.05,41.31,28.09,28.09,0,0,1,4.82,30.17,28.09,28.09,0,0,1,7.05,19,29,29,0,0,1,22.36,3.72,27.92,27.92,0,0,1,33.5,1.49,27.92,27.92,0,0,1,44.64,3.72,29,29,0,0,1,60,19a28.09,28.09,0,0,1,2.23,11.14A28.09,28.09,0,0,1,60,41.31,29,29,0,0,1,44.64,56.62,28.09,28.09,0,0,1,33.5,58.85,28.09,28.09,0,0,1,22.36,56.62Zm21-3.1A25.39,25.39,0,0,0,56.86,40a25,25,0,0,0,2-9.91,24.64,24.64,0,0,0-2-9.82A25.25,25.25,0,0,0,43.41,6.81a24.64,24.64,0,0,0-9.82-2,25,25,0,0,0-9.91,2A25.39,25.39,0,0,0,10.15,20.26a24.64,24.64,0,0,0-2,9.82,25.06,25.06,0,0,0,2,9.92,25.57,25.57,0,0,0,5.45,8.1,25.18,25.18,0,0,0,18,7.39A24.64,24.64,0,0,0,43.41,53.52ZM29.85,39.15l10.78-9-10.78-9Z" transform="translate(-4.82 -1.49)"/></svg>