<svg id="Capa_1" data-name="Capa 1" xmlns="http://www.w3.org/2000/svg" viewBox="0 0 23.34 23.34"><defs><style>.cls-1{fill:#fff;}</style></defs><title>ig</title><path class="cls-1" d="M20.44,1.14a5.94,5.94,0,0,0-3.08-.8h-3c-2.52,0-5.13,0-7.7,0A6.09,6.09,0,0,0,.85,4.13,5.46,5.46,0,0,0,.37,5.92l0,.18V17.85c0,.11,0,.22,0,.33s.08.49.14.72a6.2,6.2,0,0,0,4.9,4.66l.5.08.23,0H17.84l.34-.05a5.72,5.72,0,0,0,.72-.14,6.18,6.18,0,0,0,4.64-4.89,5.87,5.87,0,0,0,.12-1.3V17c0-3.36,0-6.84,0-10.26A6.14,6.14,0,0,0,20.44,1.14Zm2.11,16.24a5.14,5.14,0,0,1-4.07,5.06,5.54,5.54,0,0,1-1.15.11H6.66a5.17,5.17,0,0,1-5.1-4.07,5.75,5.75,0,0,1-.11-1.17c0-3.74,0-7.47,0-10.62a5.12,5.12,0,0,1,4-5.1,5.24,5.24,0,0,1,1.27-.14h6.93c1.21,0,2.46,0,3.69,0a5,5,0,0,1,4.76,3,4.73,4.73,0,0,1,.46,2.13V9.14C22.55,11.84,22.56,14.64,22.55,17.38Z" transform="translate(-0.33 -0.33)"/><path class="cls-1" d="M12,5.69A6.32,6.32,0,1,0,12,18.32a6.2,6.2,0,0,0,4.45-1.82A6.3,6.3,0,0,0,18.31,12,6.21,6.21,0,0,0,16.5,7.58,6.37,6.37,0,0,0,12,5.69Zm3.62,10A5.15,5.15,0,0,1,12,17.21h0A5.21,5.21,0,0,1,12,6.8h0a5.2,5.2,0,0,1,3.65,8.9Z" transform="translate(-0.33 -0.33)"/><path class="cls-1" d="M18.61,3.53h0A1.67,1.67,0,0,0,17,5.17,1.64,1.64,0,0,0,18.6,6.8h0a1.62,1.62,0,0,0,1.16-.5,1.56,1.56,0,0,0,.47-1.14A1.66,1.66,0,0,0,18.61,3.53Zm0,2.43h0a.79.79,0,0,1-.55-.24.78.78,0,0,1-.24-.57.82.82,0,0,1,.79-.77h0a.79.79,0,0,1,0,1.58Z" transform="translate(-0.33 -0.33)"/></svg>