<svg id="Capa_1" data-name="Capa 1" xmlns="http://www.w3.org/2000/svg" xmlns:xlink="http://www.w3.org/1999/xlink" viewBox="98 38 253 483"><defs><style>.cls-1{fill:none;}.cls-2{clip-path:url(#clip-path);}.cls-3{fill:#b9dbe5;}</style><clipPath id="clip-path" transform="translate(97.92 36.76)"><rect class="cls-1" x="-0.05" y="-5.54" width="261.56" height="521.44"/></clipPath></defs><title>01</title><g class="cls-2"><path class="cls-3" d="M116.52,433.82c-105.85-32.72,25.35-294,9.44-330.28a10.26,10.26,0,0,0-6.07-6.25,10.37,10.37,0,0,0-8.69.58C64.8,118.19,72.75,259.29.57,290.9a34.29,34.29,0,0,1-27.45,1.69,34.29,34.29,0,0,1-19.86-19C-70.5,219.33,11.73,179.87-25.42,95l-7.13-16.28c-19.32-44.13-37.39-53.5-63.56-49.42l-1.81-4.14L-19.3-35.55l2.75-1.21,47,107.33C74.41,171,1.27,220.64,10.66,242.09c2.3,5.25,7.33,5.39,11.76,3.45,31.13-13.63,41.84-142.11,83.81-160.48a24,24,0,0,1,34.5,12c22.41,51.16-115.14,314.6,23.56,312.81,68.61-.89,118.82,118.94,68,55.24C198.24,422.5,169.66,450.24,116.52,433.82Z" transform="translate(97.92 36.76)"/></g></svg>
