<svg data-name="Capa 1" xmlns="http://www.w3.org/2000/svg" viewBox="0 1 148 306"><defs><clipPath id="a" transform="translate(-19.16 -11.86)"><path style="fill:none" d="M-2.48 3.72h170.44v325.46H-2.48z"/></clipPath></defs><g style="clip-path:url(#a)"><path d="M563.21 263c7 32.17 5.78 80.15-27.44 108.33C498.83 402.66 460 373.27 436 348c1.68 63.32-21.34 126-63.42 161.7-50.21 42.58-112.58 40.89-151.41-4.9-109-128.58 35.05-280.41-16.66-341.39a14.31 14.31 0 0 0-21.13-.89c-35.14 29.8-33.4 112.93-72.09 145.75-19.32 16.38-44.64 13-64.87-10.85C6.8 250.71.22 129.71 96.57 48c71.63-60.74 148.3-40.7 207.18 28.73l165.32 194.94c25.68 30.28 48.44 54.13 71.33 34.72a51.39 51.39 0 0 0 15.87-42.65ZM258.44 143.06c-18.16-21.41-86.43-101.91-161-38.65a90.16 90.16 0 0 0-11.67 127.45 23 23 0 0 0 35.47 4.47c13.38-11.35 16.91-52.29 49.5-79.92a34 34 0 0 1 52.26 4.65c45.39 53.52-14.56 207.51 41.65 273.8 33.19 39.14 78.95 42.21 113.68 12.77 29.53-25.05 44.32-70.59 49.18-105.17Z" transform="translate(-19.16 -11.86)" style="fill:#b9dbe5"/></g></svg>
