<svg data-name="Capa 1" xmlns="http://www.w3.org/2000/svg" viewBox="0 111 185 461.78"><defs><clipPath id="a" transform="translate(-9.52 109.9)"><path style="fill:none" d="M1-.86h194.06v463.74H1z"/></clipPath></defs><g style="clip-path:url(#a)"><path d="m197.28-105.63 1.5-4.27 120.06 42.14-1.5 4.28c-29.13-10.23-39.74 13.17-55.69 58.64l-10.79 30.72c-74.07 211-211.28 193.55-224.41 231a10.38 10.38 0 0 0 6.94 14.22c47.79 16.77 138.19-91.87 212.54-65.77a34.3 34.3 0 0 1 22.79 44.94c-19.61 55.88-139.13 31.25-143.23 132.83-3 74.58 196.87 129.62 218.79 144.49l-1.49 4.26-82.2-8.33s-18.85-1.59-19.56-1.84C89.59 468.47 73.59 410.47 80.59 355.47c13.83-108.72 116.92-99.27 124.68-121.36 1.89-5.41-1.69-9-6.25-10.55C167 212.31 71.51 299 28.28 283.8a24 24 0 0 1-17-32.31c18.49-52.7 103.42-21.72 182.08-245.82l10.79-30.73c15.92-45.46 22.26-70.36-6.87-80.57Z" transform="translate(-9.52 109.9)" style="fill:#b0bcaf"/></g></svg>
