<svg xmlns="http://www.w3.org/2000/svg" viewBox="0 0 226.73 382.46"><defs><clipPath id="a" transform="translate(-9.5 -13.49)"><path style="fill:none" d="M-5.08-9.47h241.31v421.06H-5.08z"/></clipPath></defs><g style="clip-path:url(#a)"><path d="M151 46.21c109.1 19.25 11.55 294.84 31.86 328.88a10.38 10.38 0 0 0 15.36 3.78c43.49-25.95 18-165 85.66-205.34A34.32 34.32 0 0 1 333 184.82c30.34 50.86-46.33 100.27 1.13 179.81l9.1 15.26c24.66 41.38 43.77 48.42 69.2 41.11l2.32 3.88L344.33 495l-2.58 1.54-60-100.61c-56.15-94.12 10.22-152.54-1.78-172.65-2.93-4.92-7.94-4.44-12.09-2-29.22 17.4-23.81 146.21-63.16 169.72a24 24 0 0 1-35.72-7.66c-28.61-48 75-326.51-62.42-307.41C38.61 85.37-26.17-27.25 32.23 29.6 71.31 67.64 96.2 36.55 151 46.21Z" transform="translate(-9.5 -13.49)" style="fill:#b9dbe5"/></g></svg>
