<svg id="Capa_1" data-name="Capa 1" xmlns="http://www.w3.org/2000/svg" viewBox="0 0 13.13 23.3"><defs><style>.cls-1{fill:#fff;}</style></defs><title>fb</title><path class="cls-1" d="M16.86,8.34H14.19V7.68c0-.4,0-.78,0-1.16,0-.58.17-.73.76-.74H17a1,1,0,0,0,1.14-1.14V1.47a1.58,1.58,0,0,0-.05-.38,1,1,0,0,0-.9-.71c-.75,0-1.51,0-2.25,0h-1.2a5.33,5.33,0,0,0-2.51.67,5.25,5.25,0,0,0-2.75,4A15.5,15.5,0,0,0,8.4,7c0,.29,0,.58,0,.88v.44H6.17A1,1,0,0,0,5,9.47v3.4a2.45,2.45,0,0,0,0,.38,1,1,0,0,0,1,.76H8.38v8.42a2.81,2.81,0,0,0,0,.29,1,1,0,0,0,1,1c1.22,0,2.5,0,3.79,0a.94.94,0,0,0,.92-.62,1.76,1.76,0,0,0,.08-.58q0-3.21,0-6.42V14h2.67A1,1,0,0,0,18,12.83V9.5A1,1,0,0,0,16.86,8.34Zm0,4.56H13.83c-.55,0-.77.22-.77.77v8.89H9.49V13.71a.6.6,0,0,0,0-.19.62.62,0,0,0-.66-.62H6.17V9.45H8.71c.55,0,.78-.23.79-.79,0-.28,0-.55,0-.83,0-.62,0-1.26,0-1.89A4.52,4.52,0,0,1,11,2.55a4.44,4.44,0,0,1,2.82-1.07c.7,0,1.4,0,2.09,0h.88l.09,0h0l.09,0V4.65H16a13.49,13.49,0,0,0-1.42.06,1.48,1.48,0,0,0-1.44,1.51c-.07.88,0,1.8,0,2.61,0,.39.27.61.72.61H16.9Z" transform="translate(-5.03 -0.38)"/></svg>