<svg id="Capa_1" data-name="Capa 1" xmlns="http://www.w3.org/2000/svg" viewBox="0 0 19.5 21.87"><defs><style>.cls-1{fill:#fff;}</style></defs><title>tiktok</title><path class="cls-1" d="M21.23,6.3a8.52,8.52,0,0,1-1.12-.12A4.71,4.71,0,0,1,16.3,1.64c0-.16,0-.32,0-.48V1.07h-4.4v.85q0,6.93,0,13.85a2.69,2.69,0,0,1,0,.56,2.47,2.47,0,0,1-1.69,2.05,2.44,2.44,0,0,1-2.65-.61,2.4,2.4,0,0,1-.64-2.57,2.56,2.56,0,0,1,3.24-1.68l.58.19.1,0V9.15A8.08,8.08,0,0,0,9.26,9a7.18,7.18,0,0,0-1.62.18,7,7,0,0,0-5.27,8.1,7,7,0,0,0,14-1.49c0-1.36,0-2.75,0-4.09V9.38l.2.12a9.55,9.55,0,0,0,5.24,1.18V6.33h0C21.57,6.31,21.4,6.31,21.23,6.3Zm-.51,3.35h-.14a8.56,8.56,0,0,1-5.3-2.31V10c0,1.92,0,3.91,0,5.87a6,6,0,0,1-4.86,6,5.52,5.52,0,0,1-1.14.12,6.1,6.1,0,0,1-3.57-1.17,6,6,0,0,1-2.42-4.07,6,6,0,0,1,5.2-6.59l.74,0,.34,0h.15v2.32H9.62l-.37,0a6.24,6.24,0,0,0-.77.09,3.59,3.59,0,0,0,.33,7,3.6,3.6,0,0,0,4.08-3.42c0-.11,0-.23,0-.34V2.1h2.36l0,.11a5.88,5.88,0,0,0,5.33,5.12h.11Z" transform="translate(-2.25 -1.07)"/></svg>